<?xml version="1.0"?>
<!DOCTYPE svg PUBLIC "-//W3C//DTD SVG 1.1//EN" "http://www.w3.org/Graphics/SVG/1.1/DTD/svg11.dtd">
<svg xmlns="http://www.w3.org/2000/svg" xmlns:xl="http://www.w3.org/1999/xlink" version="1.1" viewBox="-2 -2 98 117" width="98pt" height="117pt"><metadata xmlns:dc="http://purl.org/dc/elements/1.1/"><dc:date>2012-01-14 19:06Z</dc:date><!-- Produced by OmniGraffle Professional 5.3.6 --></metadata><defs></defs><g stroke="none" stroke-opacity="1" stroke-dasharray="none" fill="none" fill-opacity="1"><title>Canvas 1</title><rect fill="white" width="842" height="595"/><g><title>Body</title><path d="M 49.097805 .8255577 L 30.995941 4.3672523 C 24.961979 8.435364 17.635048 33.047424 17.635048 33.047424 L 5.9981422 55.218624 C 4.2948418 59.8811 -11.672714 109.9347 16.773052 112.375565 C 27.116966 112.78238 27.116966 101.59507 27.116966 101.59507 L 49.097805 70.880844 C 60.298546 72.043922 67.630646 91.83161 67.630646 91.83161 L 84.52311 111.561935 C 92.18022 111.35407 93.126694 94.233017 92.987885 93.86566 L 87.813354 60.683327 C 82.210403 49.34021 74.957596 35.081482 77.974556 28.979313 C 80.99154 22.877151 82.28453 6.401306 74.095604 3.9604378 C 65.906654 1.519577 49.097805 .8255577 49.097805 .8255577 Z" fill="#90be33"/><path d="M 49.097805 .8255577 L 30.995941 4.3672523 C 24.961979 8.435364 17.635048 33.047424 17.635048 33.047424 L 5.9981422 55.218624 C 4.2948418 59.8811 -11.672714 109.9347 16.773052 112.375565 C 27.116966 112.78238 27.116966 101.59507 27.116966 101.59507 L 49.097805 70.880844 C 60.298546 72.043922 67.630646 91.83161 67.630646 91.83161 L 84.52311 111.561935 C 92.18022 111.35407 93.126694 94.233017 92.987885 93.86566 L 87.813354 60.683327 C 82.210403 49.34021 74.957596 35.081482 77.974556 28.979313 C 80.99154 22.877151 82.28453 6.401306 74.095604 3.9604378 C 65.906654 1.519577 49.097805 .8255577 49.097805 .8255577 Z" stroke="black" stroke-linecap="butt" stroke-linejoin="miter" stroke-width="1"/><path d="M 35.300014 81.311165 C 18.497189 74.54183 22.795084 39.352669 35.300014 31.623255 C 47.804947 23.893847 55.56289 26.334711 60.303844 31.623255 C 65.044823 36.911797 78.974625 77.780457 61.01931 79.51753 C 58.579857 75.558853 54.953487 70.06935 46.637817 70.983444 C 40.045303 73.659042 40.957283 74.03698 35.300014 81.311165 Z" fill="#a6d970"/><path d="M 35.300014 81.311165 C 18.497189 74.54183 22.795084 39.352669 35.300014 31.623255 C 47.804947 23.893847 55.56289 26.334711 60.303844 31.623255 C 65.044823 36.911797 78.974625 77.780457 61.01931 79.51753 C 58.579857 75.558853 54.953487 70.06935 46.637817 70.983444 C 40.045303 73.659042 40.957283 74.03698 35.300014 81.311165 Z" stroke="black" stroke-linecap="butt" stroke-linejoin="miter" stroke-width="1"/></g><g><title>Foot</title><path d="M 25.932703 .8255577 L 11.625 87.285156 L 79.586533 87.98245 L 93 112.38638 L 0 112.38638 L 17.88464 .8255577 Z" fill="#516b11"/><path d="M 25.932703 .8255577 L 11.625 87.285156 L 79.586533 87.98245 L 93 112.38638 L 0 112.38638 L 17.88464 .8255577 L 25.932703 .8255577 Z" stroke="black" stroke-linecap="butt" stroke-linejoin="miter" stroke-width="1"/></g><g><title>Hand</title><path d="M 6.074581 50.032234 L 41.896336 82.76818 C 47.188534 77.915466 56.178017 64.85073 64.415565 62.11802 L 71.23905 64.63713 C 69.7577 84.32704 45.803432 112.386406 45.803432 112.386406 L 6.074581 85.106453 C 1.8078194 71.60991 -5.1423416 61.72364 6.074581 50.032234 Z" fill="#90be33"/><path d="M 6.074581 50.032234 L 41.896336 82.76818 C 47.188534 77.915466 56.178017 64.85073 64.415565 62.11802 L 71.23905 64.63713 C 69.7577 84.32704 45.803432 112.386406 45.803432 112.386406 L 6.074581 85.106453 C 1.8078194 71.60991 -5.1423416 61.72364 6.074581 50.032234 Z" stroke="black" stroke-linecap="butt" stroke-linejoin="miter" stroke-width="1"/><path d="M 60.719963 49.710312 L 55.387234 20.760807 C 54.428368 14.478632 57.893303 7.7709084 59.821896 14.52696 C 61.75119 21.283062 66.801003 32.017311 66.801003 32.017311 L 69.149307 .109134674 L 74.306175 .015609741 C 74.587692 21.862919 74.059425 30.994686 74.059425 30.994686 L 86.741776 38146973e-13 L 87.76432 14.078016 C 82.234756 28.438206 80.72154 41.061783 80.72154 41.061783 L 92.58471 31.549677 L 93.00007 40.152962 C 88.88241 49.64328 82.828865 55.863094 82.828865 55.863094 L 69.53502 68.75795 C 64.39332 62.48356 60.719963 49.710312 60.719963 49.710312 Z" fill="#90be33"/><path d="M 60.719963 49.710312 L 55.387234 20.760807 C 54.428368 14.478632 57.893303 7.7709084 59.821896 14.52696 C 61.75119 21.283062 66.801003 32.017311 66.801003 32.017311 L 69.149307 .109134674 L 74.306175 .015609741 C 74.587692 21.862919 74.059425 30.994686 74.059425 30.994686 L 86.741776 38146973e-13 L 87.76432 14.078016 C 82.234756 28.438206 80.72154 41.061783 80.72154 41.061783 L 92.58471 31.549677 L 93.00007 40.152962 C 88.88241 49.64328 82.828865 55.863094 82.828865 55.863094 L 69.53502 68.75795 C 64.39332 62.48356 60.719963 49.710312 60.719963 49.710312 Z" stroke="black" stroke-linecap="butt" stroke-linejoin="miter" stroke-width="1"/></g><g><title>Head</title><path d="M 88.611824 70.510124 C 88.510925 81.688126 68.955704 112.49111 43.927505 112.386124 C 19.036758 112.28213 -.1251564 84.050125 5722046e-10 70.138115 C .20968628 46.907093 19.794167 28.156113 44.683434 28.261097 C 69.575653 28.365097 88.82089 47.279102 88.611824 70.510124 Z" fill="#90be33"/><path d="M 88.611824 70.510124 C 88.510925 81.688126 68.955704 112.49111 43.927505 112.386124 C 19.036758 112.28213 -.1251564 84.050125 5722046e-10 70.138115 C .20968628 46.907093 19.794167 28.156113 44.683434 28.261097 C 69.575653 28.365097 88.82089 47.279102 88.611824 70.510124 Z" stroke="black" stroke-linecap="butt" stroke-linejoin="miter" stroke-width="1"/><path d="M 35.981766 70.01603 C 35.932056 75.439034 29.464844 79.80903 21.533945 79.77503 C 13.6030464 79.74205 7.214795 75.31904 7.263027 69.895027 C 7.311286 64.472023 13.779978 60.102028 21.710876 60.13502 C 29.640297 60.169044 36.03003 64.59202 35.981766 70.01603 Z" fill="white"/><path d="M 35.981766 70.01603 C 35.932056 75.439034 29.464844 79.80903 21.533945 79.77503 C 13.6030464 79.74205 7.214795 75.31904 7.263027 69.895027 C 7.311286 64.472023 13.779978 60.102028 21.710876 60.13502 C 29.640297 60.169044 36.03003 64.59202 35.981766 70.01603 Z" stroke="black" stroke-linecap="butt" stroke-linejoin="miter" stroke-width="1"/><path d="M 26.11206 69.71711 C 26.098871 71.23213 24.291643 72.45311 22.076422 72.4441 C 19.861229 72.434128 18.075882 71.19911 18.090508 69.68312 C 18.103666 68.1681 19.910925 66.948105 22.126146 66.957108 C 24.341339 66.967117 26.125217 68.202103 26.11206 69.71711 Z" fill="black"/><path d="M 26.11206 69.71711 C 26.098871 71.23213 24.291643 72.45311 22.076422 72.4441 C 19.861229 72.434128 18.075882 71.19911 18.090508 69.68312 C 18.103666 68.1681 19.910925 66.948105 22.126146 66.957108 C 24.341339 66.967117 26.125217 68.202103 26.11206 69.71711 Z" stroke="black" stroke-linecap="butt" stroke-linejoin="miter" stroke-width="1"/><path d="M 78.378784 70.207405 C 78.33493 75.08539 72.5169 79.016396 65.382904 78.986397 C 58.25038 78.9564 52.502487 74.977386 52.54639 70.099403 C 52.590267 65.220406 58.4083 61.289406 65.542274 61.319405 C 72.6763 61.349403 78.42264 65.328407 78.378784 70.207405 Z" fill="white"/><path d="M 78.378784 70.207405 C 78.33493 75.08539 72.5169 79.016396 65.382904 78.986397 C 58.25038 78.9564 52.502487 74.977386 52.54639 70.099403 C 52.590267 65.220406 58.4083 61.289406 65.542274 61.319405 C 72.6763 61.349403 78.42264 65.328407 78.378784 70.207405 Z" stroke="black" stroke-linecap="butt" stroke-linejoin="miter" stroke-width="1"/><path d="M 68.514755 69.896317 C 68.501602 71.410316 66.694344 72.630325 64.47912 72.621315 C 62.263927 72.611313 60.47861 71.37632 60.493237 69.86232 C 60.506397 68.347305 62.313652 67.12532 64.528847 67.13533 C 66.744064 67.144302 68.527916 68.380325 68.514755 69.896317 Z" fill="black"/><path d="M 68.514755 69.896317 C 68.501602 71.410316 66.694344 72.630325 64.47912 72.621315 C 62.263927 72.611313 60.47861 71.37632 60.493237 69.86232 C 60.506397 68.347305 62.313652 67.12532 64.528847 67.13533 C 66.744064 67.144302 68.527916 68.380325 68.514755 69.896317 Z" stroke="black" stroke-linecap="butt" stroke-linejoin="miter" stroke-width="1"/><path d="M 26.65902 92.519424 L 62.482506 90.169426 L 49.353577 100.114433 L 34.61184 100.05342 C 28.075867 97.525436 26.65902 92.519424 26.65902 92.519424 Z" fill="#620e13"/><path d="M 26.65902 92.519424 L 62.482506 90.169426 L 49.353577 100.114433 L 34.61184 100.05342 C 28.075867 97.525436 26.65902 92.519424 26.65902 92.519424 Z" stroke="black" stroke-linecap="butt" stroke-linejoin="miter" stroke-width="1"/><path d="M 60.488388 32.59312 L 66.869385 35.093124 L 93.000015 6.5931244 Z" fill="#e78c0f"/><path d="M 60.488388 32.59312 L 66.869385 35.093124 L 93.000015 6.5931244 L 60.488388 32.59312 Z" stroke="black" stroke-linecap="butt" stroke-linejoin="miter" stroke-width="1"/><path d="M 43.45629 44.949142 L 50.572762 43.682114 L 40.093258 10.816147 Z" fill="#e78c0f"/><path d="M 43.45629 44.949142 L 50.572762 43.682114 L 40.093258 10.816147 L 43.45629 44.949142 Z" stroke="black" stroke-linecap="butt" stroke-linejoin="miter" stroke-width="1"/><path d="M 25.73154 33.390549 L 32.190037 30.985518 L 10.406415 .82554626 Z" fill="#e78c0f"/><path d="M 25.73154 33.390549 L 32.190037 30.985518 L 10.406415 .82554626 L 25.73154 33.390549 Z" stroke="black" stroke-linecap="butt" stroke-linejoin="miter" stroke-width="1"/></g></g></svg>
