<?xml version="1.0"?>
<!DOCTYPE svg PUBLIC "-//W3C//DTD SVG 1.1//EN" "http://www.w3.org/Graphics/SVG/1.1/DTD/svg11.dtd">
<svg xmlns="http://www.w3.org/2000/svg" xmlns:xl="http://www.w3.org/1999/xlink" version="1.1" viewBox="-3 -2 151 183" width="151pt" height="183pt">
  <metadata xmlns:dc="http://purl.org/dc/elements/1.1/">
    <dc:date>2012-01-16 09:50Z</dc:date>
    <!-- Produced by OmniGraffle Professional 5.3.6 -->
  </metadata>
  <defs/>
  <g stroke="none" stroke-opacity="1" stroke-dasharray="none" fill="none" fill-opacity="1">
    <title>Canvas 1</title>
    <rect fill="white" width="842" height="595"/>
    <g>
      <title>Body</title>
      <path d="M 79.4385 15258789e-12 L 51.993732 5.65094 C 42.845467 12.141777 31.736893 51.41137 31.736893 51.41137 L 14.0938416 86.78646 C 11.5114174 94.22563 -12.697456 174.08827 30.429996 177.98277 C 46.112705 178.63187 46.112705 160.78204 46.112705 160.78204 L 79.4385 111.776184 C 96.420265 113.63194 107.536674 145.204025 107.536674 145.204025 L 133.14783 176.6846 C 144.75699 176.35294 146.19197 149.03557 145.98154 148.44945 L 138.13626 95.505623 C 129.64148 77.407196 118.64528 54.656792 123.21938 44.920525 C 127.79352 35.184269 129.75386 8.8963623 117.33839 5.001854 C 104.92288 1.1073532 79.4385 15258789e-12 79.4385 15258789e-12 Z" fill="#be3333"/>
      <path d="M 79.4385 15258789e-12 L 51.993732 5.65094 C 42.845467 12.141777 31.736893 51.41137 31.736893 51.41137 L 14.0938416 86.78646 C 11.5114174 94.22563 -12.697456 174.08827 30.429996 177.98277 C 46.112705 178.63187 46.112705 160.78204 46.112705 160.78204 L 79.4385 111.776184 C 96.420265 113.63194 107.536674 145.204025 107.536674 145.204025 L 133.14783 176.6846 C 144.75699 176.35294 146.19197 149.03557 145.98154 148.44945 L 138.13626 95.505623 C 129.64148 77.407196 118.64528 54.656792 123.21938 44.920525 C 127.79352 35.184269 129.75386 8.8963623 117.33839 5.001854 C 104.92288 1.1073532 79.4385 15258789e-12 79.4385 15258789e-12 Z" stroke="black" stroke-linecap="butt" stroke-linejoin="miter" stroke-width="1"/>
      <path d="M 58.519226 128.4182 C 33.043968 117.61745 39.560135 61.471664 58.519226 49.139057 C 77.478325 36.806465 89.240364 40.700966 96.42827 49.139057 C 103.616203 57.577152 124.735596 122.784805 97.51301 125.55638 C 93.814476 119.24014 88.316437 110.481415 75.7088 111.93989 C 65.7137 116.20892 67.096375 116.81193 58.519226 128.4182 Z" fill="#d97070"/>
      <path d="M 58.519226 128.4182 C 33.043968 117.61745 39.560135 61.471664 58.519226 49.139057 C 77.478325 36.806465 89.240364 40.700966 96.42827 49.139057 C 103.616203 57.577152 124.735596 122.784805 97.51301 125.55638 C 93.814476 119.24014 88.316437 110.481415 75.7088 111.93989 C 65.7137 116.20892 67.096375 116.81193 58.519226 128.4182 Z" stroke="black" stroke-linecap="butt" stroke-linejoin="miter" stroke-width="1"/>
    </g>
    <g>
      <title>Head</title>
      <path d="M 134.346954 111.18463 C 134.19397 129.01961 104.54573 178.16705 66.599754 177.99954 C 28.862171 177.8336 -.18976593 132.78827 8468628e-10 110.59107 C .31789398 73.525017 30.010498 43.607048 67.74584 43.774551 C 105.485664 43.94049 134.66394 74.118576 134.346954 111.18463 Z" fill="#be3333"/>
      <path d="M 134.346954 111.18463 C 134.19397 129.01961 104.54573 178.16705 66.599754 177.99954 C 28.862171 177.8336 -.18976593 132.78827 8468628e-10 110.59107 C .31789398 73.525017 30.010498 43.607048 67.74584 43.774551 C 105.485664 43.94049 134.66394 74.118576 134.346954 111.18463 Z" stroke="black" stroke-linecap="butt" stroke-linejoin="miter" stroke-width="1"/>
      <path d="M 54.552994 110.39633 C 54.477627 119.048965 44.672497 126.02148 32.648232 125.96723 C 20.623962 125.914604 10.938549 118.857506 11.011673 110.20328 C 11.084841 101.550644 20.892214 94.57813 32.916481 94.630775 C 44.938507 94.68506 54.62616 101.742104 54.552994 110.39633 Z" fill="white"/>
      <path d="M 54.552994 110.39633 C 54.477627 119.048965 44.672497 126.02148 32.648232 125.96723 C 20.623962 125.914604 10.938549 118.857506 11.011673 110.20328 C 11.084841 101.550644 20.892214 94.57813 32.916481 94.630775 C 44.938507 94.68506 54.62616 101.742104 54.552994 110.39633 Z" stroke="black" stroke-linecap="butt" stroke-linejoin="miter" stroke-width="1"/>
      <path d="M 39.589172 109.91937 C 39.569176 112.33665 36.829185 114.284775 33.470623 114.27039 C 30.112104 114.25448 27.405285 112.28396 27.427462 109.865135 C 27.44741 107.44786 30.187449 105.5013 33.546013 105.515663 C 36.90453 105.53164 39.60912 107.502113 39.589172 109.91937 Z" fill="black"/>
      <path d="M 39.589172 109.91937 C 39.569176 112.33665 36.829185 114.284775 33.470623 114.27039 C 30.112104 114.25448 27.405285 112.28396 27.427462 109.865135 C 27.44741 107.44786 30.187449 105.5013 33.546013 105.515663 C 36.90453 105.53164 39.60912 107.502113 39.589172 109.91937 Z" stroke="black" stroke-linecap="butt" stroke-linejoin="miter" stroke-width="1"/>
      <path d="M 118.83237 110.70164 C 118.765884 118.484665 109.94499 124.756744 99.12893 124.708885 C 88.31511 124.66102 79.600555 118.31235 79.66712 110.52932 C 79.733643 102.744675 88.554535 96.472595 99.37056 96.52046 C 110.18666 96.56833 118.89886 102.91699 118.83237 110.70164 Z" fill="white"/>
      <path d="M 118.83237 110.70164 C 118.765884 118.484665 109.94499 124.756744 99.12893 124.708885 C 88.31511 124.66102 79.600555 118.31235 79.66712 110.52932 C 79.733643 102.744675 88.554535 96.472595 99.37056 96.52046 C 110.18666 96.56833 118.89886 102.91699 118.83237 110.70164 Z" stroke="black" stroke-linecap="butt" stroke-linejoin="miter" stroke-width="1"/>
      <path d="M 103.87721 110.20529 C 103.85726 112.62094 101.117226 114.56751 97.75866 114.55314 C 94.400146 114.53718 91.693375 112.566696 91.715546 110.15105 C 91.735497 107.73377 94.47553 105.78405 97.834053 105.800026 C 101.19261 105.81433 103.897163 107.78647 103.87721 110.20529 Z" fill="black"/>
      <path d="M 103.87721 110.20529 C 103.85726 112.62094 101.117226 114.56751 97.75866 114.55314 C 94.400146 114.53718 91.693375 112.566696 91.715546 110.15105 C 91.735497 107.73377 94.47553 105.78405 97.834053 105.800026 C 101.19261 105.81433 103.897163 107.78647 103.87721 110.20529 Z" stroke="black" stroke-linecap="butt" stroke-linejoin="miter" stroke-width="1"/>
      <path d="M 40.418472 146.30139 L 94.731506 142.551865 L 74.826355 158.41954 L 52.47597 158.32219 C 42.566593 154.2887 40.418472 146.30139 40.418472 146.30139 Z" fill="#620e13"/>
      <path d="M 40.418472 146.30139 L 94.731506 142.551865 L 74.826355 158.41954 L 52.47597 158.32219 C 42.566593 154.2887 40.418472 146.30139 40.418472 146.30139 Z" stroke="black" stroke-linecap="butt" stroke-linejoin="miter" stroke-width="1"/>
      <path d="M 91.708145 50.686485 L 101.38256 54.675346 L 140.99997 9.202408 Z" fill="#e7df0f"/>
      <path d="M 91.708145 50.686485 L 101.38256 54.675346 L 140.99997 9.202408 L 91.708145 50.686485 Z" stroke="black" stroke-linecap="butt" stroke-linejoin="miter" stroke-width="1"/>
      <path d="M 65.88533 70.401047 L 76.67482 68.379448 L 60.786545 15.940432 Z" fill="#e7df0f"/>
      <path d="M 65.88533 70.401047 L 76.67482 68.379448 L 60.786545 15.940432 L 65.88533 70.401047 Z" stroke="black" stroke-linecap="butt" stroke-linejoin="miter" stroke-width="1"/>
      <path d="M 39.012295 51.958817 L 48.804207 48.12149 L 15.77742 0 Z" fill="#e7df0f"/>
      <path d="M 39.012295 51.958817 L 48.804207 48.12149 L 15.77742 0 L 39.012295 51.958817 Z" stroke="black" stroke-linecap="butt" stroke-linejoin="miter" stroke-width="1"/>
    </g>
    <g>
      <title>Hand</title>
      <path d="M 9.536438 79.24217 L 65.772728 131.09004 C 74.08091 123.40421 88.19342 102.712013 101.12549 98.38389 L 111.83763 102.3737 C 109.512054 133.559006 71.90645 178.00002 71.90645 178.00002 L 9.536438 134.79346 C 2.8380814 113.41735 -8.0729218 97.75926 9.536438 79.24217 Z" fill="#be3333"/>
      <path d="M 9.536438 79.24217 L 65.772728 131.09004 C 74.08091 123.40421 88.19342 102.712013 101.12549 98.38389 L 111.83763 102.3737 C 109.512054 133.559006 71.90645 178.00002 71.90645 178.00002 L 9.536438 134.79346 C 2.8380814 113.41735 -8.0729218 97.75926 9.536438 79.24217 Z" stroke="black" stroke-linecap="butt" stroke-linejoin="miter" stroke-width="1"/>
      <path d="M 95.32364 78.732246 L 86.95183 32.881409 C 85.44652 22.931564 90.886086 12.307728 93.913765 23.008106 C 96.94255 33.708565 104.8702 50.709694 104.8702 50.709694 L 108.55679 .17284393 L 116.652504 .024723053 C 117.09446 34.626953 116.26514 49.090042 116.26514 49.090042 L 136.175064 38146973e-13 L 137.780334 22.297058 C 129.09952 45.04103 126.72394 65.034523 126.72394 65.034523 L 145.34782 49.969048 L 145.99989 63.59511 C 139.53561 78.626083 130.03221 88.47716 130.03221 88.47716 L 109.16231 108.9003 C 101.0904 98.962784 95.32364 78.732246 95.32364 78.732246 Z" fill="#be3333"/>
      <path d="M 95.32364 78.732246 L 86.95183 32.881409 C 85.44652 22.931564 90.886086 12.307728 93.913765 23.008106 C 96.94255 33.708565 104.8702 50.709694 104.8702 50.709694 L 108.55679 .17284393 L 116.652504 .024723053 C 117.09446 34.626953 116.26514 49.090042 116.26514 49.090042 L 136.175064 38146973e-13 L 137.780334 22.297058 C 129.09952 45.04103 126.72394 65.034523 126.72394 65.034523 L 145.34782 49.969048 L 145.99989 63.59511 C 139.53561 78.626083 130.03221 88.47716 130.03221 88.47716 L 109.16231 108.9003 C 101.0904 98.962784 95.32364 78.732246 95.32364 78.732246 Z" stroke="black" stroke-linecap="butt" stroke-linejoin="miter" stroke-width="1"/>
    </g>
    <g>
      <title>Foot</title>
      <path d="M 39.317322 0 L 17.625 137.94994 L 120.66344 139.0625 L 140.999985 178 L 0 178 L 27.115417 0 Z" fill="#6b1111"/>
      <path d="M 39.317322 0 L 17.625 137.94994 L 120.66344 139.0625 L 140.999985 178 L 0 178 L 27.115417 0 L 39.317322 0 Z" stroke="black" stroke-linecap="butt" stroke-linejoin="miter" stroke-width="1"/>
    </g>
  </g>
</svg>
